<?xml version="1.0" encoding="utf-8"?>
<!-- Generator: Adobe Illustrator 27.7.0, SVG Export Plug-In . SVG Version: 6.00 Build 0)  -->
<svg version="1.1" id="Layer_1" xmlns="http://www.w3.org/2000/svg" xmlns:xlink="http://www.w3.org/1999/xlink" x="0px" y="0px"
	 viewBox="0 0 2183 2500" style="enable-background:new 0 0 2183 2500;" xml:space="preserve">
<style type="text/css">
	.st0{fill:#5C8DBC;}
	.st1{fill:#1A4674;}
	.st2{fill:#1B598E;}
	.st3{fill:#FFFFFF;}
</style>
<g id="XMLID_1_">
	<path id="XMLID_3_" class="st0" d="M2153.4,757.4c0-39.9-8.5-75.9-26.2-106c-17-30.1-42.5-55-76.5-74.6
		C1768.1,413.9,1484.8,251,1202.2,88.1c-76.5-43.8-149.8-42.5-225.7,2C863.9,156.2,300,479.3,132.5,576.8
		C63.2,616.7,29.8,678.2,29.8,758c0,327.8,0,656.2,0,983.9c0,39.3,8.5,73.9,24.9,104c17,30.7,43.2,56.9,77.9,77.2
		c168.1,97.5,731.4,420,843.9,486.7c75.9,44.5,149.8,46.4,225.7,2c282.6-163.6,565.9-325.8,848.5-488.7
		c35.3-20.3,60.8-45.8,77.9-77.2c16.4-30.1,24.9-64.8,24.9-104C2153.4,1741.3,2153.4,1085.1,2153.4,757.4"/>
	<path id="XMLID_4_" class="st1" d="M1094.2,1246.1L53.4,1845.3c17,30.7,43.2,56.9,77.9,77.2c168.1,97.5,731.4,420,843.9,486.7
		c75.9,44.5,149.8,46.4,225.7,2c282.6-163.6,565.9-325.8,848.5-488.7c35.3-20.3,60.8-45.8,77.9-77.2L1094.2,1246.1"/>
	<path id="XMLID_5_" class="st1" d="M786.1,1423.4c60.8,106,174.7,177.3,304.9,177.3c131.5,0,246-72,306.2-179.3l-302.9-175.3
		L786.1,1423.4"/>
	<path id="XMLID_6_" class="st2" d="M2153.4,757.4c0-39.9-8.5-75.9-26.2-106l-1033,594.7l1034.3,599.3c16.4-30.1,24.9-64.8,24.9-104
		C2153.4,1741.3,2153.4,1085.1,2153.4,757.4"/>
	<polyline id="XMLID_7_" class="st3" points="2096.5,1289.2 2015.3,1289.2 2015.3,1369.7 1934.9,1369.7 1934.9,1289.2 
		1853.8,1289.2 1853.8,1208.1 1934.9,1208.1 1934.9,1127.7 2015.3,1127.7 2015.3,1208.1 2096.5,1208.1 2096.5,1289.2 	"/>
	<polyline id="XMLID_8_" class="st3" points="1801.4,1289.2 1720.3,1289.2 1720.3,1369.7 1639.8,1369.7 1639.8,1289.2 
		1558.7,1289.2 1558.7,1208.1 1639.8,1208.1 1639.8,1127.7 1720.3,1127.7 1720.3,1208.1 1801.4,1208.1 1801.4,1289.2 	"/>
	<path id="XMLID_9_" class="st3" d="M1397.1,1421.4c-60.2,106.6-174.7,179.3-306.2,179.3c-130.8,0-244.7-71.3-304.9-177.3
		c-29.4-51.7-46.4-110.6-46.4-174c0-194.3,157-351.3,351.3-351.3c129.5,0,242.7,70.7,303.6,175.3l306.8-176.6
		c-122.3-210.7-350-352.6-611-352.6c-389.9,0-705.2,316-705.2,705.2c0,127.6,34,247.9,93.6,351.3
		c121.7,211.3,350.7,353.9,612.3,353.9c262.3,0,491.3-143.3,613-355.9L1397.1,1421.4"/>
</g>
</svg>
