<?xml version="1.0" encoding="utf-8"?>
<!-- Generator: Adobe Illustrator 27.7.0, SVG Export Plug-In . SVG Version: 6.00 Build 0)  -->
<svg version="1.1" id="Layer_1" xmlns="http://www.w3.org/2000/svg" xmlns:xlink="http://www.w3.org/1999/xlink" x="0px" y="0px"
	 viewBox="0 0 3670 2500" style="enable-background:new 0 0 3670 2500;" xml:space="preserve">
<style type="text/css">
	.st0{fill:#00758F;}
	.st1{fill:#F29111;}
	.st2{fill-rule:evenodd;clip-rule:evenodd;fill:#F29111;}
	.st3{fill-rule:evenodd;clip-rule:evenodd;fill:#00758F;}
</style>
<path class="st0" d="M912,2245.1H774.8c-4.8-232.2-18.2-450.5-40.1-655h-1.2l-208.9,655H420.2l-207.6-655h-1.2
	c-15.4,196.4-25.1,414.7-29.1,655H57.1c8.1-292.2,28.3-566.2,60.7-821.9h170l197.9,603.9h1.2l199.2-603.9h162.7
	C884.5,1722.7,905.5,1996.8,912,2245.1 M1507.1,1638.8c-55.9,303.9-129.6,524.8-221,662.6c-71.3,106.2-149.3,159.2-234.4,159.2
	c-22.7,0-50.6-6.8-83.8-20.4v-73.3c16.2,2.4,35.2,3.6,57.1,3.6c39.7,0,71.6-11,95.9-32.9c29.1-26.7,43.7-56.8,43.7-90.1
	c0-22.7-11.4-69.4-34-140l-150.6-468.8h134.8l108.1,350.6c24.3,79.6,34.4,135.2,30.4,166.9c59.1-158.3,100.4-330.8,123.9-517.5
	H1507.1"/>
<g>
	<path class="st1" d="M2108.1,2017.3c0,69.7-25.5,126.9-76.5,171.7c-51,44.6-119.4,66.9-205.1,66.9c-80.2,0-157.9-25.7-233.2-76.7
		l35.2-70.6c64.8,32.5,123.4,48.7,176,48.7c49.4,0,88-11,116-32.8c27.9-21.9,44.6-52.5,44.6-91.3c0-48.8-34-90.5-96.2-125.5
		c-57.5-31.6-172.4-97.7-172.4-97.7c-62.3-45.5-93.5-94.4-93.5-174.9c0-66.6,23.3-120.4,69.8-161.3c46.6-41,106.7-61.5,180.3-61.5
		c76.1,0,145.3,20.4,207.6,60.9l-31.7,70.5c-53.3-22.7-105.9-34.1-157.8-34.1c-42.1,0-74.5,10.1-97.1,30.5
		c-22.7,20.2-36.8,46.2-36.8,77.9c0,48.7,34.7,90.9,98.7,126.6c58.2,31.7,175.9,99,175.9,99
		C2076.2,1889,2108.1,1937.5,2108.1,2017.3"/>
	<path class="st2" d="M2353.4,2080.7c-33.2-53.6-49.8-139.6-49.8-258.1c0-207,62.8-310.5,188.2-310.5c65.6,0,113.7,24.8,144.5,74.3
		c33.2,53.6,49.8,138.8,49.8,255.7c0,208.6-62.8,313-188.2,313C2432.3,2155.1,2384.1,2130.3,2353.4,2080.7 M2841.5,2265l-150.7-74.5
		c13.4-11,26.2-22.9,37.7-36.7c64-75.4,96-187,96-334.8c0-271.9-106.5-407.9-319.4-407.9c-104.4,0-185.8,34.5-244.1,103.5
		c-64,75.5-95.9,186.7-95.9,333.6c0,144.5,28.3,250.5,85,317.8c51.6,60.8,129.7,91.3,234.3,91.3c39,0,74.8-4.8,107.3-14.4
		l196.2,114.5l53.5-92.4"/>
	<path class="st1" d="M3333.4,2245.1h-389.8v-821.9h131.2V2144h258.6V2245.1z M3426.9,2245.1h21.7v-83.6h28.4v-17.1h-79.7v17.1h29.5
		L3426.9,2245.1z M3592.3,2245.1h20.5v-100.7h-30.8l-25.1,68.6l-27.3-68.6h-29.7v100.7h19.4v-76.6h1.1l28.6,76.6h14.8l28.5-76.6
		L3592.3,2245.1z"/>
</g>
<g>
	<path class="st3" d="M3498,1147.9c-79.3-2-140.7,5.9-192.1,27.8c-14.9,6-38.6,6-40.6,24.8c8,7.9,8.9,20.8,15.9,31.8
		c11.9,19.9,32.6,46.6,51.5,60.6c20.8,15.9,41.6,31.7,63.4,45.6c38.6,23.9,82.2,37.8,119.8,61.6c21.9,13.9,43.6,31.7,65.4,46.7
		c10.9,7.9,17.7,20.9,31.7,25.8v-3c-7-8.9-8.9-21.8-15.8-31.8c-9.9-9.9-19.8-18.9-29.7-28.7c-28.7-38.7-64.4-72.5-103-100.3
		c-31.7-21.9-101.1-51.7-113.9-88.3l-2-2c21.8-2,47.6-10,68.4-16c33.6-8.9,64.3-6.9,99-15.8c15.9-4,31.7-9,47.6-13.9v-9
		c-17.9-17.8-30.8-41.7-49.6-58.6c-50.5-43.7-106-86.4-163.4-122.2c-30.7-19.9-70.4-32.7-103.1-49.6c-11.8-6-31.6-8.9-38.6-18.9
		c-17.8-21.8-27.8-50.6-40.6-76.5c-28.7-54.6-56.5-115.1-81.2-172.8c-17.8-38.7-28.7-77.4-50.5-113.2
		c-102.1-168.9-212.9-271.1-383.3-371.4c-36.6-20.9-80.2-29.8-126.7-40.7c-24.8-1-49.5-3-74.3-3.9c-15.9-7-31.7-25.9-45.6-34.8
		c-56.5-35.7-202-113.2-243.6-10.9c-26.8,64.6,39.6,128.1,62.4,160.9c16.8,22.8,38.6,48.7,50.5,74.5c6.9,16.9,8.9,34.8,15.9,52.6
		c15.8,43.7,30.7,92.4,51.5,133.1c10.9,20.9,22.7,42.7,36.6,61.5c8,11,21.8,15.9,24.8,33.8c-13.8,19.8-14.9,49.6-22.8,74.5
		c-35.6,112.2-21.8,251.2,28.7,333.7c15.8,24.8,53.5,79.5,104,58.5c44.6-17.8,34.7-74.4,47.5-124.1c3-12,1-19.9,6.9-27.8v2
		c13.9,27.8,27.8,54.5,40.6,82.4c30.8,48.6,84.2,99.3,128.8,133c23.7,17.9,42.5,48.7,72.2,59.6v-3h-1.9c-6-8.9-14.9-12.9-22.8-19.8
		c-17.8-17.9-37.6-39.7-51.5-59.6c-41.6-55.6-78.3-117.2-110.9-180.7c-15.9-30.9-29.7-64.6-42.6-95.4c-5.9-11.9-5.9-29.8-15.8-35.7
		c-14.9,21.8-36.6,40.7-47.5,67.4c-18.8,42.7-20.8,95.4-27.8,150c-3.9,1-1.9,0-3.9,2c-31.7-7.9-42.6-40.7-54.5-68.4
		c-29.7-70.6-34.7-183.8-8.9-265.2c6.9-20.8,36.7-86.4,24.8-106.2c-6-18.9-25.8-29.8-36.6-44.7c-12.9-18.9-26.8-42.7-35.6-63.6
		c-23.8-55.6-35.7-117.2-61.4-172.8c-11.9-25.9-32.7-52.7-49.5-76.5c-18.9-26.8-39.6-45.7-54.5-77.4c-4.9-10.9-11.9-28.8-4-40.7
		c1.9-8,6-11,13.9-12.9c12.8-10.9,49.5,2.9,62.3,8.9c36.7,14.9,67.4,28.8,98,49.7c13.9,9.9,28.7,28.8,46.5,33.8h20.8
		c31.7,6.9,67.4,1.9,97.1,10.9c52.5,16.9,100,41.7,142.6,68.5c129.7,82.4,236.7,199.6,308.9,339.6c11.9,22.8,16.9,43.7,27.8,67.5
		c20.8,48.8,46.6,98.4,67.3,146c20.8,46.7,40.6,94.3,70.4,133.1c14.8,20.8,74.3,31.7,101,42.7c19.8,8.9,50.5,16.9,68.4,27.8
		c33.7,20.8,67.3,44.7,99,67.6C3445.5,1103.2,3495,1128,3498,1147.9"/>
	<path class="st3" d="M2487.8,284.9c-13.7-0.1-27.3,1.6-40.6,5v2h1.9c8,15.8,21.9,26.9,31.7,40.7c8,15.9,14.9,31.7,22.8,47.6
		c1-1,1.9-2,1.9-2c14-9.9,20.9-25.8,20.9-49.6c-6-7-6.9-13.9-11.9-20.9C2508.6,297.8,2495.7,292.8,2487.8,284.9"/>
</g>
</svg>
